<svg data-bbox="0 0 129.627 44.001" xmlns="http://www.w3.org/2000/svg" viewBox="0 0 129.627 44.001" data-type="color" aria-hidden="true">
  <path fill="#44ADE2" d="M91.668 37.12c-2.247 0-4.17-.605-5.315-1.383l1.146-2.791c.713.562 2.03 1.103 3.608 1.103 1.771 0 2.96-1.146 2.96-2.704 0-1.644-.865-2.423-2.83-3.18-3.63-1.384-4.387-3.396-4.387-5.386 0-3.072 2.42-5.581 6.093-5.581 2.139 0 3.737.54 4.99 1.362l-1.08 2.531c-.561-.454-1.706-1.081-3.067-1.081-1.794 0-2.744 1.19-2.744 2.53 0 1.58 1.188 2.359 2.852 3.03 3.737 1.492 4.601 3.417 4.601 5.689.022 3.136-2.614 5.862-6.827 5.862Zm24.219-10.08c.173-6.468-2.614-9.864-7.713-9.864-5.034 0-8.21 3.634-8.21 9.93 0 6.51 3.457 10.036 8.923 10.036 2.917 0 4.991-.605 6.352-1.362l-1.037-2.748c-1.037.541-2.636 1.082-4.861 1.082-3.176 0-4.883-1.795-5.25-5.365zm-7.843-7.182c2.399 0 3.781 1.58 3.781 5.473l-7.95 1.212c-.108-4.608 1.642-6.685 4.169-6.685m17.046 17.284c2.312 0 3.738-.605 4.537-1.319l-.993-2.682c-.605.497-1.426.865-2.615.865-2.678 0-4.148-2.726-4.148-6.966 0-4.218 1.253-6.9 4.213-6.9 1.253 0 2.031.389 2.571.822l.929-2.466c-.713-.606-2.095-1.32-4.45-1.32-4.278 0-7.627 3.526-7.627 9.93 0 6.36 3.198 10.036 7.583 10.036" data-color="1"/>
  <path fill="#44ADE2" d="M12.682 0C5.682 0 0 5.69 0 12.698c0 1.6.302 3.137.843 4.543C.065 8.61 9.312 3.137 13.265 3.07v15.165H9.852v-2.51H5.92c-.108 0 .345-1.665.54-1.665h3.413V7.593C6.201 8.956-1.858 18.453 7.13 24.12a12.8 12.8 0 0 0 6.092 1.276c6.503-.28 11.883-5.689 12.12-12.2C25.602 5.927 19.833 0 12.682 0" clip-rule="evenodd" fill-rule="evenodd" data-color="1"/>
  <path fill="#6d6e71" d="M34.891 37.144c-5.25 0-7.842-2.142-7.842-5.863 0-5.061 4.883-6.532 10.737-7.117v-1.038c0-2.51-1.577-3.18-3.824-3.18-1.858 0-3.63.606-4.818 1.168l-.993-2.51c1.253-.605 3.564-1.47 6.61-1.47 3.954 0 7.109 1.687 7.109 6.641v11.984c-1.556.822-3.976 1.385-6.979 1.385m2.895-10.881c-4.105.497-6.632 1.384-6.632 4.889 0 2.509 1.49 3.569 4.04 3.569.994 0 1.966-.216 2.614-.54v-7.918zM49 10.969c-4.947 0-4.364 5.3-4.364 5.3V36.97H49zm28.237 26.175c-5.38 0-7.993-4.283-7.993-9.973 0-5.754 2.614-9.994 7.993-9.994 5.423 0 7.994 4.262 7.994 9.994 0 5.69-2.593 9.973-7.994 9.973m0-17.22c-3.068 0-3.673 3.548-3.673 7.226 0 3.634.67 7.03 3.673 7.03 3.111 0 3.673-3.396 3.673-7.03.022-3.678-.562-7.226-3.673-7.226m-10.262 16.7v-18.04c-1.21-.78-3.435-1.385-6.244-1.385-6.2 0-9.311 4.153-9.311 10.405 0 5.819 3.132 9.388 7.734 9.388 1.642 0 2.852-.28 3.608-.713v.692s0 .303-.021.346c-.217 2.185-1.491 3.612-4.386 3.612-1.793 0-3.5-.54-4.602-1.146l-1.21 2.855c1.383.822 3.824 1.363 6.568 1.363 4.429 0 7.432-2.271 7.842-6.706 0-.043 0-.173.022-.303zm-4.213-2.79c-.605.368-1.469.606-2.463.606-3.219 0-4.558-2.401-4.558-7.074 0-4.824 1.382-7.615 4.774-7.615.93 0 1.685.109 2.247.433z" data-color="2"/>
</svg>
